<svg width="60" height="60" viewBox="0 0 60 60" fill="none" xmlns="http://www.w3.org/2000/svg">
<path d="M30 0.833344C26.1698 0.833344 22.3771 1.58776 18.8384 3.05352C15.2998 4.51929 12.0845 6.66769 9.37609 9.37606C3.90628 14.8459 0.833374 22.2645 0.833374 30C0.833374 37.7355 3.90628 45.1542 9.37609 50.624C12.0845 53.3323 15.2998 55.4807 18.8384 56.9465C22.3771 58.4123 26.1698 59.1667 30 59.1667C37.7355 59.1667 45.1542 56.0938 50.624 50.624C56.0938 45.1542 59.1667 37.7355 59.1667 30C59.1667 26.1698 58.4123 22.3771 56.9465 18.8384C55.4808 15.2997 53.3324 12.0844 50.624 9.37606C47.9156 6.66769 44.7003 4.51929 41.1616 3.05352C37.623 1.58776 33.8303 0.833344 30 0.833344ZM30 19.4708C34.7062 22.5283 40.1963 24.1592 45.8084 24.1667C48.0834 24.1667 50.2709 23.9042 52.3709 23.4083C52.9834 25.4792 53.3334 27.6958 53.3334 30C53.3334 42.8625 42.8625 53.3334 30 53.3334C21.25 53.3334 13.6375 48.4917 9.58337 41.3458L14.6875 35.8333V32.9167C14.6875 31.9497 15.0717 31.0224 15.7554 30.3387C16.4391 29.655 17.3664 29.2708 18.3334 29.2708C19.3003 29.2708 20.2276 29.655 20.9114 30.3387C21.5951 31.0224 21.9792 31.9497 21.9792 32.9167V35.8333H30V19.4708ZM41.6667 29.2708C40.6998 29.2708 39.7724 29.655 39.0887 30.3387C38.405 31.0224 38.0209 31.9497 38.0209 32.9167C38.0209 33.8836 38.405 34.8109 39.0887 35.4947C39.7724 36.1784 40.6998 36.5625 41.6667 36.5625C42.6336 36.5625 43.561 36.1784 44.2447 35.4947C44.9284 34.8109 45.3125 33.8836 45.3125 32.9167C45.3125 31.9497 44.9284 31.0224 44.2447 30.3387C43.561 29.655 42.6336 29.2708 41.6667 29.2708Z" fill="black"/>
</svg>
