<svg width="70" height="70" viewBox="0 0 70 70" fill="none" xmlns="http://www.w3.org/2000/svg">
<path fill-rule="evenodd" clip-rule="evenodd" d="M35 5.83334C27.0783 5.83334 26.0866 5.86834 22.9746 6.00834C19.8712 6.15126 17.7508 6.64418 15.8958 7.36459C13.9489 8.09622 12.1851 9.24389 10.7275 10.7275C9.24394 12.1852 8.09628 13.949 7.36456 15.8958C6.64415 17.7508 6.15123 19.8713 6.00831 22.9746C5.8654 26.0867 5.83331 27.0783 5.83331 35C5.83331 42.9217 5.8654 43.9133 6.00831 47.0254C6.15123 50.1288 6.64415 52.2492 7.36456 54.1042C8.09636 56.051 9.24401 57.8148 10.7275 59.2725C12.1852 60.756 13.949 61.9036 15.8958 62.6354C17.7508 63.3559 19.8712 63.8488 22.9746 63.9917C26.0866 64.1317 27.0783 64.1667 35 64.1667C42.9216 64.1667 43.9133 64.1317 47.0254 63.9917C50.1287 63.8488 52.2491 63.3559 54.1041 62.6354C56.051 61.9037 57.8148 60.7561 59.2725 59.2725C60.756 57.8148 61.9037 56.0511 62.6354 54.1042C63.3558 52.2492 63.8487 50.1288 63.9917 47.0254C64.1317 43.9133 64.1667 42.9217 64.1667 35C64.1667 27.0783 64.1317 26.0867 63.9917 22.9746C63.8487 19.8713 63.3558 17.7508 62.6354 15.8958C61.9037 13.949 60.756 12.1852 59.2725 10.7275C57.8149 9.24389 56.0511 8.09622 54.1041 7.36459C52.2491 6.64418 50.1287 6.15126 47.0254 6.00834C43.9133 5.86834 42.9216 5.83334 35 5.83334ZM35 11.0892C42.7875 11.0892 43.7092 11.1183 46.7833 11.2583C49.63 11.3896 51.1729 11.8621 52.2025 12.2617C53.5617 12.7925 54.5358 13.4254 55.5567 14.4433C56.5775 15.4642 57.2075 16.4383 57.7383 17.7975C58.135 18.8271 58.6133 20.37 58.7416 23.2138C58.8816 26.2908 58.9108 27.2096 58.9108 35C58.9108 42.7875 58.8816 43.7092 58.7416 46.7834C58.6104 49.63 58.135 51.1729 57.7383 52.2025C57.2707 53.4695 56.5252 54.6156 55.5567 55.5567C54.5358 56.5775 53.5617 57.2075 52.2025 57.7383C51.1729 58.135 49.63 58.6133 46.7862 58.7417C43.7121 58.8817 42.7904 58.9109 35 58.9109C27.2125 58.9109 26.2879 58.8817 23.2166 58.7417C20.37 58.6104 18.8271 58.135 17.7975 57.7383C16.5304 57.2709 15.3843 56.5254 14.4433 55.5567C13.4746 54.6157 12.7291 53.4696 12.2616 52.2025C11.8621 51.1729 11.3866 49.63 11.2583 46.7863C11.1183 43.7092 11.0891 42.7904 11.0891 35C11.0891 27.2125 11.1183 26.2908 11.2583 23.2167C11.3896 20.37 11.8621 18.8271 12.2616 17.7975C12.7925 16.4383 13.4254 15.4642 14.4433 14.4433C15.4641 13.4225 16.4383 12.7925 17.7975 12.2617C18.8271 11.8621 20.37 11.3867 23.2137 11.2583C26.2908 11.1183 27.2096 11.0892 35 11.0892ZM35 44.7213C32.4217 44.7213 29.9491 43.6971 28.126 41.874C26.3029 40.0509 25.2787 37.5782 25.2787 35C25.2787 32.4218 26.3029 29.9491 28.126 28.1261C29.9491 26.303 32.4217 25.2788 35 25.2788C37.5782 25.2788 40.0509 26.303 41.8739 28.1261C43.697 29.9491 44.7212 32.4218 44.7212 35C44.7212 37.5782 43.697 40.0509 41.8739 41.874C40.0509 43.6971 37.5782 44.7213 35 44.7213ZM35 20.0229C33.0332 20.0229 31.0856 20.4103 29.2685 21.163C27.4514 21.9157 25.8003 23.0189 24.4096 24.4096C23.0188 25.8004 21.9156 27.4514 21.163 29.2685C20.4103 31.0856 20.0229 33.0332 20.0229 35C20.0229 36.9668 20.4103 38.9144 21.163 40.7315C21.9156 42.5486 23.0188 44.1997 24.4096 45.5904C25.8003 46.9812 27.4514 48.0844 29.2685 48.837C31.0856 49.5897 33.0332 49.9771 35 49.9771C38.9722 49.9771 42.7816 48.3992 45.5904 45.5904C48.3991 42.7817 49.9771 38.9722 49.9771 35C49.9771 31.0278 48.3991 27.2184 45.5904 24.4096C42.7816 21.6009 38.9722 20.0229 35 20.0229ZM54.0692 19.4308C54.0692 19.8905 53.9786 20.3456 53.8027 20.7702C53.6268 21.1949 53.369 21.5807 53.044 21.9057C52.719 22.2307 52.3332 22.4885 51.9085 22.6644C51.4839 22.8403 51.0288 22.9308 50.5691 22.9308C50.1095 22.9308 49.6544 22.8403 49.2298 22.6644C48.8051 22.4885 48.4193 22.2307 48.0943 21.9057C47.7693 21.5807 47.5115 21.1949 47.3356 20.7702C47.1597 20.3456 47.0692 19.8905 47.0692 19.4308C47.0692 18.5026 47.4379 17.6123 48.0943 16.956C48.7507 16.2996 49.6409 15.9308 50.5691 15.9308C51.4974 15.9308 52.3876 16.2996 53.044 16.956C53.7004 17.6123 54.0692 18.5026 54.0692 19.4308Z" fill="black"/>
</svg>
