<svg width="60" height="60" viewBox="0 0 60 60" fill="none" xmlns="http://www.w3.org/2000/svg">
<path d="M58.4171 30.9654L32.1671 1.79874C31.0617 0.567902 28.9383 0.567902 27.8329 1.79874L1.58291 30.9654C1.20507 31.3842 0.957065 31.9038 0.869039 32.461C0.781013 33.0181 0.856762 33.5888 1.08708 34.1037C1.55374 35.1567 2.59791 35.8333 3.74999 35.8333H9.58333V56.25C9.58333 57.0235 9.89062 57.7654 10.4376 58.3124C10.9846 58.8594 11.7264 59.1667 12.5 59.1667H21.25C22.0235 59.1667 22.7654 58.8594 23.3124 58.3124C23.8594 57.7654 24.1667 57.0235 24.1667 56.25V44.5833H35.8333V56.25C35.8333 57.0235 36.1406 57.7654 36.6876 58.3124C37.2346 58.8594 37.9764 59.1667 38.75 59.1667H47.5C48.2735 59.1667 49.0154 58.8594 49.5624 58.3124C50.1094 57.7654 50.4167 57.0235 50.4167 56.25V35.8333H56.25C56.8149 35.8357 57.3682 35.6737 57.8426 35.3671C58.317 35.0604 58.6919 34.6224 58.9216 34.1063C59.1514 33.5903 59.226 33.0186 59.1364 32.4608C59.0468 31.9031 58.7969 31.3835 58.4171 30.9654Z" fill="black"/>
</svg>
